<?xml version="1.0" standalone="no"?>
<!DOCTYPE svg PUBLIC "-//W3C//DTD SVG 20010904//EN"
 "http://www.w3.org/TR/2001/REC-SVG-20010904/DTD/svg10.dtd">
<svg version="1.0" xmlns="http://www.w3.org/2000/svg"
 width="50.000000pt" height="50.000000pt" viewBox="0 0 50.000000 50.000000"
 preserveAspectRatio="xMidYMid meet">

<g transform="translate(0.000000,50.000000) scale(0.100000,-0.100000)"
fill="#000000" stroke="none">
<path d="M234 420 c-43 -16 -35 -84 11 -96 40 -10 73 26 57 60 -14 32 -41 46
-68 36z"/>
<path d="M92 378 c-17 -17 -15 -64 4 -82 26 -26 61 -16 75 22 19 49 -43 96
-79 60z"/>
<path d="M332 328 c-15 -15 -15 -51 0 -66 15 -15 51 -15 66 0 28 28 7 78 -33
78 -12 0 -26 -5 -33 -12z"/>
<path d="M186 229 c-35 -28 -37 -95 -3 -127 32 -30 81 -29 112 3 29 28 31 54
10 95 -27 53 -74 64 -119 29z"/>
</g>
</svg>
